# xmcd CD database file generated by OrangeCD 6.2
#
# Track frame offsets:
#	150
#	14842
#	32450
#	63885
#	79825
#	99917
#	123355
#	143120
#	157365
#	171075
#	199430
#
# Disc length: 2991 seconds
#
# Revision: 6
# Processed by: cddbd v1.5.2PL0 Copyright (c) Steve Scherf et al.
# Submitted via: OrangeCD 6.2
#
DISCID=940bac0b,950bad0b,980bae0b
DTITLE=Buddy Guy - Slippin' In
DYEAR=1994
DGENRE=Blues
TTITLE0=I Smell Trouble
TTITLE1=Please Don't Drive Me Away
TTITLE2=7-11
TTITLE3=Shame, Shame, Shame
TTITLE4=Love Her With A Feeling
TTITLE5=Little Dab-A-Doo
TTITLE6=Someone Else Is Steppin' In (Slippin' Out, Slippin' In)
TTITLE7=Trouble Blues
TTITLE8=Man Of Many Words
TTITLE9=Don't Tell Me About The Blues
TTITLE10=Cities Need Help
EXTD=
EXTT0=
EXTT1=
EXTT2=
EXTT3=
EXTT4=
EXTT5=
EXTT6=
EXTT7=
EXTT8=
EXTT9=
EXTT10=
PLAYORDER=
